<svg width="268" height="201" viewBox="0 0 268 201" fill="none" xmlns="http://www.w3.org/2000/svg">
<path d="M43.0566 156.726C43.0566 154.169 42.1436 152.177 40.3174 150.749C38.5244 149.321 35.3535 147.844 30.8047 146.316C26.2559 144.789 22.5371 143.312 19.6484 141.884C10.252 137.269 5.55371 130.927 5.55371 122.858C5.55371 118.841 6.71582 115.305 9.04004 112.25C11.3975 109.162 14.7178 106.771 19.001 105.078C23.2842 103.352 28.0986 102.488 33.4443 102.488C38.6572 102.488 43.3223 103.418 47.4395 105.277C51.5898 107.137 54.8105 109.793 57.1016 113.246C59.3926 116.666 60.5381 120.584 60.5381 125H43.1064C43.1064 122.045 42.1934 119.754 40.3672 118.127C38.5742 116.5 36.1338 115.687 33.0459 115.687C29.9248 115.687 27.4512 116.384 25.625 117.778C23.832 119.14 22.9355 120.883 22.9355 123.008C22.9355 124.867 23.9316 126.561 25.9238 128.088C27.916 129.582 31.4189 131.143 36.4326 132.77C41.4463 134.363 45.5635 136.09 48.7842 137.949C56.6201 142.465 60.5381 148.69 60.5381 156.626C60.5381 162.968 58.1475 167.948 53.3662 171.567C48.585 175.187 42.0273 176.996 33.6934 176.996C27.8164 176.996 22.4873 175.95 17.7061 173.858C12.958 171.733 9.37207 168.845 6.94824 165.192C4.55762 161.507 3.3623 157.273 3.3623 152.492H20.8936C20.8936 156.377 21.8896 159.249 23.8818 161.108C25.9072 162.935 29.1777 163.848 33.6934 163.848C36.582 163.848 38.8564 163.233 40.5166 162.005C42.21 160.743 43.0566 158.983 43.0566 156.726ZM85.1416 127.889C88.7275 123.373 93.3096 121.115 98.8877 121.115C104.831 121.115 109.313 122.875 112.335 126.395C115.356 129.914 116.9 135.11 116.967 141.983V176H100.133V142.382C100.133 139.526 99.5518 137.435 98.3896 136.106C97.2275 134.745 95.252 134.064 92.4629 134.064C89.0098 134.064 86.5693 135.16 85.1416 137.352V176H68.3574V99.5H85.1416V127.889ZM152.378 176.996C144.11 176.996 137.42 174.539 132.307 169.625C127.193 164.678 124.637 158.253 124.637 150.351V148.956C124.637 143.444 125.649 138.58 127.675 134.363C129.733 130.146 132.722 126.893 136.64 124.602C140.558 122.277 145.206 121.115 150.585 121.115C158.155 121.115 164.132 123.473 168.515 128.188C172.897 132.869 175.089 139.41 175.089 147.811V154.335H141.72C142.317 157.356 143.629 159.73 145.654 161.457C147.68 163.184 150.303 164.047 153.523 164.047C158.836 164.047 162.986 162.188 165.975 158.469L173.645 167.533C171.553 170.422 168.581 172.729 164.729 174.456C160.911 176.149 156.794 176.996 152.378 176.996ZM150.485 134.064C145.571 134.064 142.649 137.318 141.72 143.826H158.653V142.531C158.72 139.842 158.039 137.767 156.611 136.306C155.184 134.812 153.142 134.064 150.485 134.064ZM207.96 176.996C199.692 176.996 193.002 174.539 187.889 169.625C182.775 164.678 180.219 158.253 180.219 150.351V148.956C180.219 143.444 181.231 138.58 183.257 134.363C185.315 130.146 188.304 126.893 192.222 124.602C196.14 122.277 200.788 121.115 206.167 121.115C213.737 121.115 219.714 123.473 224.097 128.188C228.479 132.869 230.671 139.41 230.671 147.811V154.335H197.302C197.899 157.356 199.211 159.73 201.236 161.457C203.262 163.184 205.885 164.047 209.105 164.047C214.418 164.047 218.568 162.188 221.557 158.469L229.227 167.533C227.135 170.422 224.163 172.729 220.312 174.456C216.493 176.149 212.376 176.996 207.96 176.996ZM206.067 134.064C201.153 134.064 198.231 137.318 197.302 143.826H214.235V142.531C214.302 139.842 213.621 137.767 212.193 136.306C210.766 134.812 208.724 134.064 206.067 134.064ZM257.018 108.714V122.111H265.883V133.766H257.018V158.419C257.018 160.444 257.383 161.855 258.113 162.652C258.844 163.449 260.288 163.848 262.446 163.848C264.106 163.848 265.501 163.748 266.63 163.549V175.552C263.608 176.515 260.454 176.996 257.167 176.996C251.39 176.996 247.123 175.635 244.367 172.912C241.611 170.189 240.233 166.056 240.233 160.511V133.766H233.36V122.111H240.233V108.714H257.018Z" fill="#3E8FF7"/>
<path d="M62.4678 35.9814H40.7031V95H23.2217V35.9814H1.85547V22.4844H62.4678V35.9814ZM86.8223 95H69.9883V41.1113H86.8223V95ZM68.9922 27.2158C68.9922 24.8252 69.8555 22.8662 71.582 21.3389C73.3086 19.8115 75.5498 19.0479 78.3057 19.0479C81.0615 19.0479 83.3027 19.8115 85.0293 21.3389C86.7559 22.8662 87.6191 24.8252 87.6191 27.2158C87.6191 29.6064 86.7559 31.5654 85.0293 33.0928C83.3027 34.6201 81.0615 35.3838 78.3057 35.3838C75.5498 35.3838 73.3086 34.6201 71.582 33.0928C69.8555 31.5654 68.9922 29.6064 68.9922 27.2158ZM113.069 41.1113L113.617 47.4365C117.436 42.5557 122.565 40.1152 129.007 40.1152C135.813 40.1152 140.412 42.8213 142.803 48.2334C146.455 42.8213 151.734 40.1152 158.641 40.1152C169.564 40.1152 175.176 46.7227 175.475 59.9375V95H158.641V60.9834C158.641 58.2275 158.176 56.2188 157.246 54.957C156.316 53.6953 154.623 53.0645 152.166 53.0645C148.846 53.0645 146.372 54.542 144.745 57.4971L144.795 58.1943V95H127.961V61.083C127.961 58.2607 127.513 56.2188 126.616 54.957C125.72 53.6953 124.01 53.0645 121.486 53.0645C118.266 53.0645 115.809 54.542 114.115 57.4971V95H97.3311V41.1113H113.069ZM211.135 95.9961C202.867 95.9961 196.177 93.5391 191.063 88.625C185.95 83.6777 183.394 77.2529 183.394 69.3506V67.9561C183.394 62.4443 184.406 57.5801 186.432 53.3633C188.49 49.1465 191.479 45.8926 195.396 43.6016C199.314 41.2773 203.963 40.1152 209.342 40.1152C216.912 40.1152 222.889 42.4727 227.271 47.1875C231.654 51.8691 233.846 58.4102 233.846 66.8105V73.335H200.477C201.074 76.3564 202.386 78.7305 204.411 80.457C206.437 82.1836 209.06 83.0469 212.28 83.0469C217.593 83.0469 221.743 81.1875 224.731 77.4688L232.401 86.5332C230.31 89.4219 227.338 91.7295 223.486 93.4561C219.668 95.1494 215.551 95.9961 211.135 95.9961ZM209.242 53.0645C204.328 53.0645 201.406 56.3184 200.477 62.8262H217.41V61.5312C217.477 58.8418 216.796 56.7666 215.368 55.3057C213.94 53.8115 211.898 53.0645 209.242 53.0645Z" fill="#252C48"/>
</svg>
